<svg xmlns="http://www.w3.org/2000/svg" viewBox="0 0 1440 320">
  <!-- Lớp sóng sâu (xanh đậm) -->
  <path
    fill="#0056b3"
    fill-opacity="0.3"
    d="M0,256L60,245.3C120,235,240,213,360,208C480,203,600,213,720,218.7C840,224,960,235,1080,229.3C1200,224,1320,203,1380,192L1440,181L1440,320L1380,320C1320,320,1200,320,1080,320C960,320,840,320,720,320C600,320,480,320,360,320C240,320,120,320,60,320L0,320Z"
  />
  <!-- Lớp sóng giữa (xanh trung bình) -->
  <path
    fill="#007bff"
    fill-opacity="0.4"
    d="M0,224L48,213.3C96,203,192,181,288,181.3C384,181,480,203,576,208C672,213,768,203,864,192C960,181,1056,171,1152,165.3C1248,160,1344,160,1392,160L1440,160L1440,320L1392,320C1344,320,1248,320,1152,320C1056,320,960,320,864,320C768,320,672,320,576,320C480,320,384,320,288,320C192,320,96,320,48,320L0,320Z"
  />
  <!-- Lớp sóng trên (xanh nhạt) -->
  <path
    fill="#66b0ff"
    fill-opacity="0.5"
    d="M0,192L60,181.3C120,171,240,149,360,154.7C480,160,600,192,720,197.3C840,203,960,181,1080,170.7C1200,160,1320,160,1380,160L1440,160L1440,320L1380,320C1320,320,1200,320,1080,320C960,320,840,320,720,320C600,320,480,320,360,320C240,320,120,320,60,320L0,320Z"
  />
</svg>